<?xml version="1.0" encoding="UTF-8"?>
<!DOCTYPE svg PUBLIC "-//W3C//DTD SVG 1.1//EN" "http://www.w3.org/Graphics/SVG/1.1/DTD/svg11.dtd">
<!-- Creator: CorelDRAW -->
<svg xmlns="http://www.w3.org/2000/svg" xml:space="preserve" width="194.857mm" height="26.4794mm" version="1.1" style="shape-rendering:geometricPrecision; text-rendering:geometricPrecision; image-rendering:optimizeQuality; fill-rule:evenodd; clip-rule:evenodd"
viewBox="0 0 1948566 264794"
 xmlns:xlink="http://www.w3.org/1999/xlink"
 xmlns:xodm="http://www.corel.com/coreldraw/odm/2003">
 <defs>
  <style type="text/css">
   <![CDATA[
    .fil1 {fill:black}
    .fil2 {fill:black;fill-rule:nonzero}
    .fil0 {fill:#F81919;fill-rule:nonzero}
   ]]>
  </style>
 </defs>
 <g id="Capa_x0020_1">
  <metadata id="CorelCorpID_0Corel-Layer"/>
  <path class="fil0" d="M1589457 199334c528,1414 2095,2087 3486,2087 1331,-348 747,-1739 569,-2782 -1318,-11824 -838,-23301 2136,-34429 5318,-19823 11739,-39298 20076,-57730 2879,-5564 1768,-7998 -3871,-12519 -1221,-1044 -2441,-2087 -3951,-2782 -3544,-2435 -6208,-1739 -7762,1391 -8514,17388 -13723,35820 -14809,55990 -831,13357 1066,42580 4126,50774zm191347 -33067c-4950,-2627 -6339,-6378 -7417,-10506 -1782,-8254 -872,-16133 1291,-23263 6488,-21385 16425,-40145 27113,-58905 3168,-5628 6775,-10880 10009,-16133 869,-1501 1740,-3002 1421,-4878 -1582,-4878 -5405,-7504 -9606,-10131 -103,-58 -204,-112 -304,-161 9376,-179 18759,-336 28142,-494 2087,0 4173,0 5912,0 -2205,-696 -3943,-696 -6030,-696 -38255,0 -76161,0 -114475,-348 -2434,0 -4521,0 -7015,-348 -3596,-695 -4469,-1738 -2916,-4868 2360,-4521 4720,-9042 7081,-13563 2589,-5217 1064,-10086 -3590,-14954 -1747,-2087 -3611,-4869 -6852,-3478 -984,348 -1510,-696 -1917,-1043 -2967,-3130 -3663,-3130 -6090,-1044 -1502,1391 -2597,3130 -3692,4869 -6747,9390 -13028,19475 -18554,29908 -1266,2782 -3116,4173 -6593,4173 -6260,0 -12460,348 -19068,348 -28746,696 -57670,348 -86883,348 -13215,0 -25964,696 -39060,1391 -1332,348 -2723,348 -4056,696 -1332,347 -1908,1043 -1323,2434 1702,5912 5653,8694 11625,9042 9508,695 18897,695 28228,348 34947,-1044 69536,-4994 104367,-5912 1376,-36 3863,-199 4580,347 1665,1268 -695,4222 -1369,6260 -10756,22605 -19248,46253 -26231,70597 -8470,29908 -13691,60512 -13341,93202 -88,7651 -463,15650 1594,23648 -1052,-18432 -366,-36863 2177,-54599 6604,-49036 22265,-93898 43149,-136673 577,-696 806,-1391 1384,-2087 576,-695 1094,-1739 2722,-348 -339,2087 -1494,3478 -2530,5565 -17718,36863 -31951,75813 -40204,117198 -4327,21561 -6219,43123 -5500,65728 548,7303 1503,14954 3095,22257 1059,4173 2220,4869 6682,4521 -2619,-3130 -3271,-6956 -3516,-10433 -1133,-8694 -526,-17389 -209,-25735 1094,-18084 5495,-35125 11057,-51470 13692,-44166 32439,-85203 53797,-125196 2478,-3826 5253,-5912 10411,-6260 30251,-1813 60860,-2662 91561,-3263 -1158,686 -2059,1917 -2926,2720 -1997,1501 -3928,3376 -5484,5252 -6913,7879 -12133,16885 -16978,25889 -3479,6004 -5706,12757 -9626,18385 -6785,8630 -13633,16883 -20417,25513 -871,1501 -2180,2627 -3425,4128 -623,750 -1245,1501 -2563,374 -502,-749 -1006,-1500 -758,-2250 558,-1126 678,-2627 1237,-3752 2913,-7130 5451,-14258 8364,-21387 3097,-8254 6257,-16133 9354,-24388 806,-1875 1924,-4126 351,-6752 -3394,-4504 -6228,-10131 -13293,-9756 -1125,0 -1940,-375 -2507,-1501 -2323,-2626 -4446,-1875 -6067,-375 -2682,1876 -4047,4878 -5100,7504 -6880,16884 -11006,34518 -11562,53278 -360,4502 33,9005 1549,13507 2459,5628 9541,9755 14538,8255 2187,-376 3368,-2252 4613,-3753 7033,-9379 14065,-18759 21161,-27764 1245,-1501 1676,-3377 4988,-3753 -3694,15759 -4762,31517 1307,49527 -2732,-11631 -3020,-22136 -1680,-31892 2505,-16133 5163,-24763 9154,-27764 -1915,6378 -4205,12756 -5371,19135 -3145,12381 -3973,25137 -1234,39020 640,3751 2093,7879 3482,11632 2204,4126 4646,5252 9836,4877zm-57601 -36395c-2020,-5253 -2035,-9755 -1677,-14257 1683,-18759 6622,-36019 13631,-52153 741,-2250 1922,-4126 3543,-5627 312,-375 1061,-375 1500,0 815,374 943,1125 632,1501 -184,1125 -806,1876 -1365,3001 -9938,18760 -14678,39395 -15785,61533 -294,1800 666,4625 -479,6002zm75871 -81042c-2299,4128 -5100,7504 -8717,10506 1860,-4503 4662,-7879 8717,-10506zm92051 751c1964,-1608 3195,-2256 5867,-3002 -8228,9082 -14897,18548 -16371,20636 -11463,16238 -19261,34517 -26634,52902 -10352,25139 -18637,51402 -26107,78042 -741,2250 -1044,4877 -2600,6753 845,-8254 1691,-16509 3726,-24388 8258,-33017 19400,-64533 32171,-95300 2354,-6004 4644,-12382 6935,-18760 1364,-3002 1915,-6378 -912,-9755 -3265,-3751 -5596,-8629 -11472,-7879 -750,0 -1253,-750 -2067,-1126 -3823,-2626 -4574,-2626 -6690,376 -1804,2626 -3543,5627 -4973,8254 -18015,33017 -29954,68661 -36568,106931 -2458,12006 -3351,24388 -3492,36770 -151,10129 823,20260 3363,30766 830,4878 3592,7879 8103,10129 3696,1877 6570,1127 7496,-2250 1293,-5629 2649,-10880 3567,-16509 5786,-25513 12760,-50652 21739,-75040 8483,-22886 18285,-44648 30968,-64908 5659,-8630 11758,-16884 19547,-24014 3242,-3001 6857,-6002 11104,-7503 3121,-1501 4000,-750 4264,3001 127,751 -120,1501 7,2252 -1451,13506 -4843,26638 -8737,39021 -1365,3001 -3298,4877 -5980,6752 -7487,4503 -14663,8630 -20833,14259 -11278,10880 -20490,22887 -22054,40146 -161,4810 1295,12636 14243,13132 4878,0 9060,-1877 13180,-4128 11167,-7128 19636,-16883 26724,-28139 6777,-10882 12236,-22888 15691,-35644 926,-3377 2794,-5629 6794,-6378 5435,-1127 10808,-2627 17442,-1127 -2171,-2295 -4142,-2244 -6762,-2250 -3002,-7 -5939,337 -9316,375 -5210,58 -4999,-256 -4582,-4877 610,-4987 1357,-14931 1243,-19136 -33,-9005 -3315,-17259 -10779,-23637 -4016,-3753 -9221,-7879 -14777,-5253 -5245,2251 -9548,5628 -12468,10506zm21501 31516c-820,6302 -1101,8086 -3576,14257 -365,-5185 808,-9864 3576,-14257zm-15972 27389c1070,1876 447,2627 264,3752 -5579,13508 -12035,26264 -20625,37520 -3048,4127 -6537,7879 -10967,10505 -3368,2252 -4623,1501 -5014,-3001 -511,-3002 103,-6003 718,-9004 2036,-7879 5826,-14258 10807,-20262 6473,-8254 14766,-14632 24817,-19510zm-87841 125316c-3729,-10880 -3642,-21386 -3179,-31891 946,-31893 8344,-61158 18057,-90048 6744,-19885 15115,-39021 25116,-57405 871,-1500 1238,-3752 3362,-4502 2259,2251 574,3376 -297,4877 -3040,6379 -6144,12382 -9185,18760 -17935,37894 -30232,78041 -34388,121939 -1269,12382 -1347,25138 514,38270zm96023 -127942c-6368,19886 -14932,37895 -30578,51777 13514,-15383 22014,-33767 30578,-51777zm-303847 -34852c1177,4869 5128,7651 8791,10781 4767,3478 8940,3478 12580,348 4158,-4174 7154,-9042 8523,-15302 746,-1739 332,-4173 -719,-6260 -3034,-5564 -12151,-10085 -18174,-8694 -7702,1739 -12770,10781 -11001,19127zm7080 -13563c-1842,3478 -3277,7303 -4772,10781 -421,-4521 1072,-7999 4772,-10781zm-22467 133543c-888,-5217 -1082,-10433 -1563,-15302 -859,-13215 -1312,-26082 382,-38602 2433,-16345 5213,-32690 13684,-46253 348,0 289,-348 289,-348 576,-696 458,-1391 -8,-2087 -525,-1043 -1568,-1043 -2553,-695 -1391,0 -2256,1043 -3122,2086 -1672,2435 -2589,5217 -3854,7999 -5053,13215 -7494,27474 -8424,42428 -651,12520 846,25387 2341,38254 711,4174 726,8347 2828,12520zm115065 -188143c355,2087 474,2783 533,3130 -6799,11129 -13658,21910 -20109,33038 -577,696 -1272,696 -2722,348 1316,-4521 4142,-8346 6273,-12172 2071,-4173 4898,-7998 7317,-12172 2479,-3825 4609,-7651 8708,-12172z"/>
  <path class="fil1" d="M714065 180935l-22011 22357c-11741,11924 -31097,12073 -43023,332 -11925,-11740 -12077,-31097 -337,-43022l22011 -22357c11740,-11924 31097,-12073 43022,-332 11925,11741 12078,31097 338,43022zm-258226 -145698c-88,-6646 3265,-11793 11708,-11850 26852,7 53705,15 80557,22 90890,-44 91499,142436 -77,142542 -13847,4 -27693,9 -41540,13 -8,21623 -15,43245 -23,64868 14,6557 -4246,10807 -10991,10795 -9447,2 -18895,4 -28342,6 -6865,3 -11379,-3869 -11287,-11566 -2,-64943 -3,-129887 -5,-194830zm50590 33389c15,17331 30,34663 45,51994 11608,-2 23217,-3 34825,-5 32385,-106 32573,-52012 103,-51920 -11658,-23 -23315,-46 -34973,-69zm-321512 160904c-1384,6691 3386,12141 9780,12077 9255,4 18511,8 27766,12 7935,6 11103,-4335 12213,-10545 8166,-37100 16333,-74201 24499,-111301 8885,35762 17771,71524 26656,107286 1499,5981 4759,10017 10379,9976 8235,-6 16469,-12 24704,-18 5266,16 8656,-3507 10772,-8016 17189,-36255 34377,-72509 51566,-108764 -161,36730 -322,73459 -483,110189 107,7416 3571,11216 10630,11190 9050,0 18100,-1 27150,-1 7908,12 12125,-4614 12170,-11387 243,-65025 485,-130050 728,-195075 78,-6857 -3618,-11730 -10728,-11761 -11700,-1 -23400,-2 -35100,-3 -5396,9 -9118,3293 -11336,7615 -19873,41949 -39745,83898 -59618,125847 -10271,-41726 -20543,-83453 -30814,-125179 -1428,-5575 -5190,-8265 -10965,-8309 -11444,10 -22888,19 -34332,29 -7562,12 -11504,5337 -12642,10478 -14332,65220 -28663,130440 -42995,195660zm-184627 750c-1594,6760 3674,11324 9197,11378 46611,-12 93222,-24 139833,-36 5973,15 10447,-3106 12181,-10178 2060,-8659 4121,-17317 6181,-25976 1828,-7725 -1778,-12225 -8743,-12183 -32678,-14 -65355,-28 -98033,-42 3232,-13595 6465,-27189 9697,-40784 24261,8 48523,17 72784,25 5914,1 10905,-2925 12625,-10044 2084,-8789 4169,-17579 6253,-26368 1621,-6686 -1601,-11647 -9813,-11665 -23434,-1 -46869,-1 -70303,-2 2596,-10874 5191,-21749 7787,-32623 31795,7 63589,15 95384,22 6666,-36 11953,-3097 13792,-10635 2007,-8444 4013,-16888 6020,-25332 1482,-5960 -1418,-12400 -11210,-12422 -44933,16 -89857,-11 -134790,5 -5323,-6 -10283,3776 -11831,10149 -15670,65570 -31341,131141 -47011,196711zm1352558 -195817c730,-6793 4716,-11044 11578,-11111 28939,16 57878,33 86817,49 74931,86 88188,98047 23895,133652 9199,22798 18397,45597 27596,68395 3370,8412 -156,16205 -9135,16181 -11038,2 -22076,5 -33114,7 -5682,55 -8420,-3326 -10610,-8813 -8447,-21170 -16893,-42339 -25340,-63509 -11752,4 -23505,9 -35257,13 -2177,20521 -4355,41041 -6532,61562 -990,7002 -4800,10762 -12010,10760 -9465,-2 -18931,-4 -28396,-6 -6649,3 -10956,-4536 -10158,-11812 6889,-65123 13777,-130245 20666,-195368zm47116 33986c-1944,18341 -3887,36682 -5831,55023 12414,-4 24829,-8 37243,-12 41128,-61 45513,-55065 5968,-55024 -12460,4 -24920,9 -37380,13zm-231053 -32865c762,-7489 4254,-12170 12038,-12201 45126,11 90253,22 135379,33 7707,-16 11483,5138 10671,13099 -845,7974 -1690,15948 -2535,23922 -650,6205 -4771,11341 -12507,11363 -31774,4 -63549,9 -95323,13 -1147,10868 -2295,21735 -3442,32603 23666,-6 47333,-11 70999,-17 8237,-177 11330,4367 10673,12084 -864,8112 -1727,16225 -2591,24337 -579,6603 -4209,11650 -11143,11691 -24347,7 -48693,15 -73040,22 -1439,13572 -2877,27145 -4316,40717 32650,-8 65301,-16 97951,-24 7900,139 11519,4282 10396,12431 -866,8380 -1731,16759 -2597,25139 -592,6809 -4732,10845 -11604,10814 -46380,12 -92761,23 -139141,35 -8096,-6 -11112,-5645 -10442,-11832 6858,-64743 13716,-129486 20574,-194229zm-251877 -159c-752,-7430 3991,-12062 10648,-12010 9265,-3 18530,-6 27795,-9 7142,-57 10897,4130 11339,11162 3951,36804 7903,73609 11854,110413 12956,-35853 25911,-71707 38867,-107560 1957,-5735 5571,-9430 10621,-9458 8521,1 17043,3 25564,4 5987,106 11534,7099 9344,13882 -2513,7565 -5027,15130 -7540,22695 9729,26870 19458,53740 29187,80610 4003,-37169 8005,-74338 12008,-111507 550,-6210 4540,-10239 11252,-10220 9137,-10 18275,-20 27412,-30 7676,28 12131,4713 11117,12336 -7039,65203 -14079,130405 -21118,195608 -547,5448 -4066,10278 -11322,10312 -11673,0 -23346,-1 -35019,-1 -6169,-18 -9157,-2996 -11461,-8864 -11984,-33153 -23967,-66305 -35951,-99458 -11914,33236 -23829,66472 -35743,99708 -2024,6200 -5748,8590 -11862,8605 -11420,-1 -22841,-2 -34261,-3 -6737,-34 -10990,-4400 -11787,-10948 -6981,-65089 -13963,-130178 -20944,-195267zm-25078 168609l-48698 49462c-11731,11916 -31095,12072 -43020,331 -11925,-11741 -12071,-31105 -340,-43020l48698 -49462c11731,-11916 31095,-12072 43020,-331 11925,11741 12071,31105 340,43020zm-44972 -142944l-147352 149666c-11738,11922 -11587,31280 338,43021 11925,11741 31284,11590 43022,-332l147352 -149665c11738,-11922 11586,-31281 -339,-43021 -11925,-11741 -31283,-11591 -43021,331zm-7578 -7464l-74750 75923c-11734,11919 -31094,12071 -43019,331 -11925,-11741 -12074,-31102 -340,-43020l74749 -75923c11734,-11919 31095,-12071 43020,-330 11925,11740 12074,31101 340,43019zm-99559 651l-48697 49462c-11732,11915 -31095,12071 -43020,330 -11926,-11740 -12071,-31104 -340,-43020l48698 -49462c11731,-11915 31095,-12071 43020,-330 11925,11740 12071,31104 339,43020z"/>
  <path class="fil2" d="M1887017 191549c4707,0 9001,1073 12882,3220 3881,2147 6915,5079 9104,8795 2188,3716 3282,7886 3282,12510 0,4790 -1094,9125 -3282,13006 -2189,3881 -5223,6916 -9104,9104 -3881,2188 -8175,3282 -12882,3282 -4707,0 -8981,-1094 -12820,-3282 -3840,-2188 -6854,-5223 -9042,-9104 -2189,-3881 -3283,-8216 -3283,-13006 0,-4624 1094,-8794 3283,-12510 2188,-3716 5202,-6648 9042,-8795 3839,-2147 8113,-3220 12820,-3220zm-7419 14416c76,-712 494,-1158 1213,-1165 3034,2 6068,3 9102,5 7856,9 9245,10279 2505,14012 964,2390 1929,4780 2893,7170 353,882 -16,1699 -958,1697 -1157,0 -2314,0 -3471,0 -596,6 -883,-348 -1112,-924 -886,-2219 -1771,-4438 -2657,-6658 -1232,1 -2464,1 -3696,2 -228,2151 -457,4302 -685,6454 -104,734 -503,1128 -1259,1128 -992,-1 -1985,-1 -2977,-1 -697,0 -1149,-476 -1065,-1238 722,-6828 1444,-13655 2167,-20482zm4939 3563c-204,1923 -407,3845 -611,5768 1301,0 2603,-1 3904,-1 4312,-6 4772,-5773 626,-5769 -1306,1 -2613,1 -3919,2zm2480 24630c5119,0 9372,-1713 12758,-5140 3385,-3427 5078,-7742 5078,-12944 0,-3220 -784,-6152 -2353,-8794 -1569,-2643 -3716,-4728 -6441,-6255 -2725,-1528 -5739,-2292 -9042,-2292 -3303,0 -6317,764 -9042,2292 -2725,1527 -4852,3612 -6379,6255 -1528,2642 -2292,5574 -2292,8794 0,5285 1672,9620 5017,13006 3344,3386 7576,5078 12696,5078z"/>
 </g>
</svg>
